<svg xmlns="http://www.w3.org/2000/svg" width="226" height="59" fill="none"><path fill="#fff" d="M67.78 38.657v-20.43H78.41q2.204 0 3.663.834a5.2 5.2 0 0 1 2.234 2.293q.774 1.459.774 3.485 0 2.024-.804 3.543-.774 1.49-2.293 2.323-1.519.834-3.723.834h-6.045v7.118zm4.437-10.751h5.45q1.4 0 2.144-.804.774-.803.774-2.234 0-.982-.327-1.638a2.3 2.3 0 0 0-.983-1.012q-.626-.357-1.608-.358h-5.45zm15.476 10.75v-21.53h4.14v7.593h.208a5.1 5.1 0 0 1 1.19-1.072 6 6 0 0 1 1.58-.744 6.7 6.7 0 0 1 1.935-.268q1.549 0 2.71.566 1.161.565 1.787 1.786.655 1.221.655 3.187v10.483h-4.14v-9.828q0-.744-.178-1.25a2 2 0 0 0-.536-.864 1.8 1.8 0 0 0-.834-.507 4 4 0 0 0-1.132-.148q-.922 0-1.668.446a3.1 3.1 0 0 0-1.16 1.221q-.418.774-.418 1.787v9.143zm20.178 5.6q-1.102 0-1.847-.18a17 17 0 0 1-.923-.208v-2.8h1.817q.744 0 1.34-.357a3.4 3.4 0 0 0 1.042-.893q.447-.536.655-1.161l-6.134-15.665h4.377l2.681 7.237q.178.506.387 1.28.237.745.476 1.579.239.804.387 1.429h.149q.12-.417.268-.983t.298-1.161q.178-.595.328-1.132.179-.566.297-.982l2.234-7.267h4.169l-5.331 14.92a17 17 0 0 1-1.042 2.442 8.8 8.8 0 0 1-1.34 2.025 5.2 5.2 0 0 1-1.846 1.37q-1.042.506-2.442.506m20.366-5.242q-1.638 0-2.949-.358-1.31-.357-2.233-.982a4.8 4.8 0 0 1-1.43-1.549q-.476-.893-.476-2.025v-.238q0-.12.03-.179h3.99v.238q.03.745.477 1.221.447.447 1.161.656a5.7 5.7 0 0 0 1.549.208q.714 0 1.37-.12.685-.148 1.131-.505.477-.358.477-.923a1.24 1.24 0 0 0-.596-1.102q-.565-.388-1.519-.626a190 190 0 0 1-2.025-.536 38 38 0 0 1-2.025-.536 8.7 8.7 0 0 1-1.846-.834 4.1 4.1 0 0 1-1.31-1.31q-.507-.833-.507-2.085 0-1.22.536-2.114a4.45 4.45 0 0 1 1.46-1.519q.952-.596 2.203-.863a12 12 0 0 1 2.74-.298q1.37 0 2.561.297 1.191.27 2.085.834a4 4 0 0 1 1.399 1.37q.507.804.507 1.817v.387q0 .179-.03.238h-3.961v-.238q0-.536-.327-.893-.328-.387-.953-.596-.596-.209-1.46-.209-.596 0-1.101.09-.477.09-.834.268-.358.179-.566.447a.97.97 0 0 0-.179.595q0 .507.417.834.447.298 1.162.506.714.21 1.578.447 1.072.298 2.233.596 1.192.268 2.204.744a4.1 4.1 0 0 1 1.638 1.37q.625.864.625 2.353 0 1.43-.565 2.412a4.14 4.14 0 0 1-1.519 1.578q-.983.596-2.293.864a14 14 0 0 1-2.829.268m10.204-18.315v-3.574h4.14V20.7zm0 17.958V22.992h4.14v15.665zm15.147.357q-2.562 0-4.348-.864-1.788-.893-2.71-2.71-.924-1.846-.924-4.616 0-2.828.924-4.616.922-1.815 2.71-2.68 1.786-.893 4.348-.893 2.62 0 4.377.893 1.787.864 2.71 2.68.923 1.788.923 4.616 0 2.77-.923 4.616-.923 1.817-2.71 2.71-1.756.864-4.377.864m0-3.216q1.37 0 2.173-.507.834-.506 1.221-1.548t.388-2.561v-.715q0-1.519-.388-2.561-.387-1.042-1.221-1.549-.804-.536-2.173-.536-1.341 0-2.174.536-.805.507-1.192 1.549t-.387 2.56v.716q0 1.518.387 2.56.388 1.044 1.192 1.55.833.506 2.174.506"/><path fill="#619E90" d="M171.524 39.014q-2.502 0-4.199-.864-1.698-.893-2.591-2.71-.864-1.846-.864-4.616 0-2.828.864-4.616.893-1.816 2.591-2.71 1.727-.893 4.199-.893 1.608 0 2.888.387 1.31.387 2.264 1.191a5 5 0 0 1 1.429 1.996q.506 1.16.506 2.77h-4.139q0-1.073-.328-1.758a2.24 2.24 0 0 0-1.012-1.042q-.655-.358-1.668-.358-1.19 0-1.936.537-.744.535-1.102 1.578-.357 1.042-.357 2.59v.686q0 1.518.357 2.56.388 1.044 1.162 1.58.774.505 2.025.505 1.012 0 1.668-.357a2.37 2.37 0 0 0 1.042-1.072q.357-.715.357-1.727h3.931q0 1.518-.506 2.71a5 5 0 0 1-1.429 1.995q-.924.804-2.234 1.22-1.31.418-2.918.418m14.331 0q-.774 0-1.668-.179a5.5 5.5 0 0 1-1.638-.625 3.8 3.8 0 0 1-1.28-1.34q-.477-.893-.477-2.264 0-1.638.715-2.71.715-1.071 2.025-1.667 1.34-.626 3.187-.864a32 32 0 0 1 4.08-.238v-1.162q0-.684-.239-1.19-.209-.507-.774-.805-.536-.297-1.519-.298-.983 0-1.608.239-.596.237-.863.625a1.4 1.4 0 0 0-.239.804v.357h-4.02a1.4 1.4 0 0 1-.03-.268v-.357q0-1.37.834-2.353.834-1.012 2.353-1.548 1.518-.537 3.544-.536 2.173 0 3.633.566 1.488.566 2.263 1.667.804 1.102.804 2.77v7.117q0 .537.298.804.327.24.715.239h.982v2.71q-.297.148-.923.297-.625.18-1.519.18-.863 0-1.548-.269a3 3 0 0 1-1.102-.685 2.64 2.64 0 0 1-.625-1.131h-.209A5.2 5.2 0 0 1 189.756 38q-.714.477-1.697.745-.953.267-2.204.268m1.4-3.127a4.3 4.3 0 0 0 1.489-.238 3.6 3.6 0 0 0 1.102-.685q.446-.447.685-1.072.267-.626.268-1.34v-.864q-1.668 0-2.978.238-1.311.209-2.085.745-.745.535-.745 1.489 0 .536.268.923t.775.596q.505.207 1.221.208m11.735 2.77V22.992h3.425l.328 2.442h.208q.298-.774.775-1.4a3.5 3.5 0 0 1 1.191-1.042q.714-.387 1.667-.387.507 0 .924.12.417.088.625.178v3.752h-1.281q-.923 0-1.637.268a2.7 2.7 0 0 0-1.162.774 3.5 3.5 0 0 0-.715 1.31q-.208.775-.208 1.817v7.833zm18.14.357q-2.59 0-4.348-.864-1.757-.893-2.65-2.71-.894-1.816-.894-4.616 0-2.828.894-4.616.893-1.815 2.62-2.68 1.757-.893 4.289-.893 2.382 0 4.02.863 1.638.834 2.472 2.621.834 1.757.834 4.556v1.072h-10.93q.06 1.37.417 2.323.387.954 1.162 1.43.804.447 2.114.447.715 0 1.281-.18.595-.177 1.012-.535t.655-.894q.239-.536.239-1.22h4.05q0 1.489-.536 2.59a5.2 5.2 0 0 1-1.489 1.847q-.954.714-2.293 1.102-1.311.357-2.919.357m-3.633-9.887h6.611q0-.894-.238-1.549-.209-.655-.596-1.072a2.16 2.16 0 0 0-.953-.595 3.4 3.4 0 0 0-1.221-.209q-1.13 0-1.906.387a2.56 2.56 0 0 0-1.161 1.132q-.387.744-.536 1.906"/><g clip-path="url(#a)"><path fill="#619E90" d="M29.044 52.727a10.96 10.96 0 0 1-7.799-3.235L6.178 34.447a9 9 0 0 1-.709-.798 11 11 0 0 1-1.374-2.105 11.26 11.26 0 0 1-1.13-4.919c0-2.814 1.064-5.65 3.235-7.799 4.299-4.32 11.3-4.32 15.621 0l7.223 7.246 7.246-7.246c4.32-4.32 11.322-4.32 15.62 0a11.04 11.04 0 0 1 2.083 12.718 10 10 0 0 1-1.373 2.128q-.332.398-.71.775l-.598.598-14.446 14.447a11.01 11.01 0 0 1-7.822 3.235"/><path fill="#fff" d="M18.874 53.635c.953-3.744 1.773-21.138-1.529-27.364-2.46-4.653-5.118-9.417-6.736-14.49-.531-1.685-1.351-4.033-.465-5.784 1.108-2.193 2.77.222 3.833 1.507 3.568 4.298 6.847 10.813 12.652 12.43 5.251 1.485 8.154-2.127 13.383-5.007 1.529-.865 6.027-4.52 7.977-1.973 1.728 2.305-4.543 6.271-6.648 9.75-1.418 2.326-2.614 5.03-3.168 7.023-2.349 8.863 1.905 15.045 3.124 23.709"/><path fill="#fff" d="M33.52 11.935a6.16 6.16 0 0 1-6.16 6.16c-3.39 0-6.137-2.748-6.137-6.16a6.137 6.137 0 0 1 6.137-6.137c3.39 0 6.16 2.747 6.16 6.137"/><path fill="#619E90" d="M30.041 24.011a2.48 2.48 0 0 1-2.481 2.482 2.473 2.473 0 0 1-2.46-2.482 2.47 2.47 0 0 1 2.46-2.46 2.473 2.473 0 0 1 2.481 2.46M29.775 31.633a2.22 2.22 0 0 1-2.215 2.216 2.22 2.22 0 0 1-2.216-2.216c0-1.219.997-2.193 2.216-2.193 1.218 0 2.215.974 2.215 2.193M29.51 38.657c0 1.085-.865 1.95-1.95 1.95a1.953 1.953 0 0 1-1.95-1.95c0-1.064.886-1.95 1.95-1.95 1.085 0 1.95.886 1.95 1.95M30.063 45.104c0 .887-.709 1.596-1.595 1.596s-1.595-.71-1.595-1.596.709-1.595 1.595-1.595 1.595.71 1.595 1.595M32.058 50.356c0 .775-.643 1.418-1.44 1.418a1.43 1.43 0 0 1-1.419-1.418c0-.798.643-1.418 1.418-1.418.798 0 1.44.62 1.44 1.418"/></g><defs><clipPath id="a"><path fill="#fff" d="M2.854 5h52.291v48.746H2.855z"/></clipPath></defs></svg>